<svg width="101" height="101" viewBox="0 0 101 101" fill="none" xmlns="http://www.w3.org/2000/svg">
<path d="M15.1664 86.1879C24.5432 95.5647 37.2609 100.833 50.5217 100.833C63.7826 100.833 76.5003 95.5647 85.8771 86.1879C95.2539 76.811 100.522 64.0933 100.522 50.8325C100.522 37.5717 95.2539 24.854 85.8771 15.4772C76.5003 6.10036 63.7826 0.832519 50.5217 0.832519C37.2609 0.832519 24.5432 6.10036 15.1664 15.4772C5.78959 24.854 0.521742 37.5717 0.521742 50.8325C0.521742 64.0933 5.78959 76.811 15.1664 86.1879ZM53.6463 72.4832C53.6535 72.8981 53.578 73.3103 53.4242 73.6957C53.2704 74.0811 53.0414 74.432 52.7506 74.728C52.4597 75.0239 52.1128 75.259 51.7302 75.4195C51.3475 75.5799 50.9367 75.6626 50.5217 75.6626C50.1068 75.6626 49.696 75.5799 49.3133 75.4195C48.9307 75.259 48.5838 75.0239 48.2929 74.728C48.0021 74.432 47.7731 74.0811 47.6193 73.6957C47.4655 73.3103 47.39 72.8981 47.3972 72.4832L47.3972 36.2794L35.1643 48.5123C34.5782 49.0984 33.7834 49.4276 32.9546 49.4276C32.1258 49.4276 31.3309 49.0984 30.7449 48.5123C30.1588 47.9263 29.8296 47.1314 29.8296 46.3026C29.8296 45.4738 30.1588 44.679 30.7449 44.0929L48.312 26.5257C48.8981 25.9397 49.6929 25.6104 50.5217 25.6104C51.3505 25.6104 52.1454 25.9397 52.7315 26.5257L70.2986 44.0929C70.8847 44.679 71.2139 45.4738 71.2139 46.3026C71.2139 47.1314 70.8847 47.9263 70.2986 48.5123C69.7126 49.0984 68.9177 49.4276 68.0889 49.4276C67.2601 49.4276 66.4653 49.0984 65.8792 48.5123L53.6463 36.2794L53.6463 72.4832V72.4832Z" fill="#443434"/>
</svg>
