<svg width="466" height="214" viewBox="0 0 466 214" fill="none" xmlns="http://www.w3.org/2000/svg">
<path d="M143.077 150.074C136.121 150.074 129.984 148.795 124.665 146.238C119.346 143.579 115.203 139.589 112.236 134.27C109.27 128.848 107.787 122.046 107.787 113.863V67.0641H126.966V111.254C126.966 118.619 128.603 124.143 131.876 127.826C135.252 131.406 140.009 133.196 146.146 133.196C150.647 133.196 154.534 132.275 157.807 130.434C161.183 128.593 163.791 125.831 165.633 122.148C167.576 118.466 168.548 113.914 168.548 108.492V67.0641H187.728V149H169.469V126.905L172.691 133.656C169.929 138.975 165.888 143.067 160.569 145.931C155.25 148.693 149.419 150.074 143.077 150.074ZM247.517 150.074C239.641 150.074 232.531 148.335 226.189 144.857C219.949 141.277 215.039 136.367 211.459 130.127C207.879 123.887 206.089 116.522 206.089 108.032C206.089 99.5418 207.879 92.1768 211.459 85.9369C215.039 79.6971 219.949 74.8383 226.189 71.3603C232.531 67.8824 239.641 66.1434 247.517 66.1434C254.371 66.1434 260.508 67.6778 265.93 70.7466C271.351 73.713 275.647 78.265 278.818 84.4026C281.99 90.5401 283.575 98.4166 283.575 108.032C283.575 117.545 282.041 125.422 278.972 131.661C275.903 137.799 271.658 142.402 266.237 145.471C260.815 148.54 254.575 150.074 247.517 150.074ZM249.819 133.656C254.422 133.656 258.513 132.633 262.094 130.587C265.776 128.542 268.692 125.575 270.84 121.688C273.09 117.801 274.215 113.249 274.215 108.032C274.215 102.713 273.09 98.1608 270.84 94.376C268.692 90.4889 265.776 87.5225 262.094 85.4766C258.513 83.4308 254.422 82.4079 249.819 82.4079C245.216 82.4079 241.073 83.4308 237.39 85.4766C233.81 87.5225 230.895 90.4889 228.644 94.376C226.496 98.1608 225.422 102.713 225.422 108.032C225.422 113.249 226.496 117.801 228.644 121.688C230.895 125.575 233.81 128.542 237.39 130.587C241.073 132.633 245.216 133.656 249.819 133.656ZM274.676 149V129.667L275.443 107.879L273.908 86.0904V35.1489H292.935V149H274.676ZM356.692 150.074C347.588 150.074 339.609 148.284 332.756 144.704C326.004 141.021 320.736 136.009 316.951 129.667C313.269 123.325 311.428 116.113 311.428 108.032C311.428 99.8487 313.218 92.6371 316.798 86.3973C320.48 80.0552 325.493 75.094 331.835 71.5138C338.279 67.9335 345.593 66.1434 353.777 66.1434C361.755 66.1434 368.865 67.8824 375.104 71.3603C381.344 74.8383 386.254 79.7483 389.834 86.0904C393.415 92.4325 395.205 99.8998 395.205 108.492C395.205 109.311 395.154 110.231 395.051 111.254C395.051 112.277 395 113.249 394.898 114.17H326.618V101.434H384.771L377.253 105.424C377.355 100.718 376.383 96.5753 374.337 92.9951C372.291 89.4149 369.478 86.6018 365.898 84.556C362.42 82.5102 358.38 81.4872 353.777 81.4872C349.071 81.4872 344.928 82.5102 341.348 84.556C337.87 86.6018 335.108 89.466 333.062 93.1485C331.119 96.7288 330.147 100.974 330.147 105.884V108.953C330.147 113.863 331.272 118.21 333.523 121.995C335.773 125.78 338.944 128.695 343.036 130.741C347.128 132.787 351.833 133.81 357.152 133.81C361.755 133.81 365.898 133.094 369.581 131.661C373.263 130.229 376.537 127.979 379.401 124.91L389.681 136.725C385.999 141.021 381.344 144.346 375.718 146.698C370.194 148.949 363.852 150.074 356.692 150.074ZM413.628 149V67.0641H431.887V89.6195L429.739 83.0216C432.194 77.4979 436.03 73.3039 441.247 70.4397C446.566 67.5755 453.164 66.1434 461.041 66.1434V84.4026C460.222 84.198 459.455 84.0957 458.739 84.0957C458.023 83.9934 457.307 83.9423 456.591 83.9423C449.328 83.9423 443.549 86.0904 439.252 90.3866C434.956 94.5806 432.808 100.872 432.808 109.26V149H413.628Z" fill="#6D8B74"/>
<path d="M143.077 150.074C136.121 150.074 129.984 148.795 124.665 146.238C119.346 143.579 115.203 139.589 112.236 134.27C109.27 128.848 107.787 122.046 107.787 113.863V67.0641H126.966V111.254C126.966 118.619 128.603 124.143 131.876 127.826C135.252 131.406 140.009 133.196 146.146 133.196C150.647 133.196 154.534 132.275 157.807 130.434C161.183 128.593 163.791 125.831 165.633 122.148C167.576 118.466 168.548 113.914 168.548 108.492V67.0641H187.728V149H169.469V126.905L172.691 133.656C169.929 138.975 165.888 143.067 160.569 145.931C155.25 148.693 149.419 150.074 143.077 150.074ZM247.517 150.074C239.641 150.074 232.531 148.335 226.189 144.857C219.949 141.277 215.039 136.367 211.459 130.127C207.879 123.887 206.089 116.522 206.089 108.032C206.089 99.5418 207.879 92.1768 211.459 85.9369C215.039 79.6971 219.949 74.8383 226.189 71.3603C232.531 67.8824 239.641 66.1434 247.517 66.1434C254.371 66.1434 260.508 67.6778 265.93 70.7466C271.351 73.713 275.647 78.265 278.818 84.4026C281.99 90.5401 283.575 98.4166 283.575 108.032C283.575 117.545 282.041 125.422 278.972 131.661C275.903 137.799 271.658 142.402 266.237 145.471C260.815 148.54 254.575 150.074 247.517 150.074ZM249.819 133.656C254.422 133.656 258.513 132.633 262.094 130.587C265.776 128.542 268.692 125.575 270.84 121.688C273.09 117.801 274.215 113.249 274.215 108.032C274.215 102.713 273.09 98.1608 270.84 94.376C268.692 90.4889 265.776 87.5225 262.094 85.4766C258.513 83.4308 254.422 82.4079 249.819 82.4079C245.216 82.4079 241.073 83.4308 237.39 85.4766C233.81 87.5225 230.895 90.4889 228.644 94.376C226.496 98.1608 225.422 102.713 225.422 108.032C225.422 113.249 226.496 117.801 228.644 121.688C230.895 125.575 233.81 128.542 237.39 130.587C241.073 132.633 245.216 133.656 249.819 133.656ZM274.676 149V129.667L275.443 107.879L273.908 86.0904V35.1489H292.935V149H274.676ZM356.692 150.074C347.588 150.074 339.609 148.284 332.756 144.704C326.004 141.021 320.736 136.009 316.951 129.667C313.269 123.325 311.428 116.113 311.428 108.032C311.428 99.8487 313.218 92.6371 316.798 86.3973C320.48 80.0552 325.493 75.094 331.835 71.5138C338.279 67.9335 345.593 66.1434 353.777 66.1434C361.755 66.1434 368.865 67.8824 375.104 71.3603C381.344 74.8383 386.254 79.7483 389.834 86.0904C393.415 92.4325 395.205 99.8998 395.205 108.492C395.205 109.311 395.154 110.231 395.051 111.254C395.051 112.277 395 113.249 394.898 114.17H326.618V101.434H384.771L377.253 105.424C377.355 100.718 376.383 96.5753 374.337 92.9951C372.291 89.4149 369.478 86.6018 365.898 84.556C362.42 82.5102 358.38 81.4872 353.777 81.4872C349.071 81.4872 344.928 82.5102 341.348 84.556C337.87 86.6018 335.108 89.466 333.062 93.1485C331.119 96.7288 330.147 100.974 330.147 105.884V108.953C330.147 113.863 331.272 118.21 333.523 121.995C335.773 125.78 338.944 128.695 343.036 130.741C347.128 132.787 351.833 133.81 357.152 133.81C361.755 133.81 365.898 133.094 369.581 131.661C373.263 130.229 376.537 127.979 379.401 124.91L389.681 136.725C385.999 141.021 381.344 144.346 375.718 146.698C370.194 148.949 363.852 150.074 356.692 150.074ZM413.628 149V67.0641H431.887V89.6195L429.739 83.0216C432.194 77.4979 436.03 73.3039 441.247 70.4397C446.566 67.5755 453.164 66.1434 461.041 66.1434V84.4026C460.222 84.198 459.455 84.0957 458.739 84.0957C458.023 83.9934 457.307 83.9423 456.591 83.9423C449.328 83.9423 443.549 86.0904 439.252 90.3866C434.956 94.5806 432.808 100.872 432.808 109.26V149H413.628Z" fill="#6D8B74"/>
<path d="M106.343 187.136H122.421V189.917H106.343V187.136ZM106.691 202.823H103.475V172.405H124.333V175.186H106.691V202.823ZM138.856 203.04C136.655 203.04 134.67 202.547 132.903 201.562C131.165 200.548 129.789 199.172 128.775 197.434C127.761 195.667 127.254 193.654 127.254 191.394C127.254 189.106 127.761 187.092 128.775 185.354C129.789 183.616 131.165 182.255 132.903 181.27C134.641 180.285 136.626 179.792 138.856 179.792C141.116 179.792 143.115 180.285 144.853 181.27C146.62 182.255 147.996 183.616 148.981 185.354C149.995 187.092 150.502 189.106 150.502 191.394C150.502 193.654 149.995 195.667 148.981 197.434C147.996 199.172 146.62 200.548 144.853 201.562C143.086 202.547 141.087 203.04 138.856 203.04ZM138.856 200.302C140.508 200.302 141.971 199.94 143.245 199.216C144.52 198.463 145.519 197.42 146.243 196.087C146.997 194.726 147.373 193.161 147.373 191.394C147.373 189.598 146.997 188.034 146.243 186.701C145.519 185.369 144.52 184.34 143.245 183.616C141.971 182.863 140.522 182.486 138.9 182.486C137.278 182.486 135.829 182.863 134.555 183.616C133.28 184.34 132.266 185.369 131.513 186.701C130.76 188.034 130.383 189.598 130.383 191.394C130.383 193.161 130.76 194.726 131.513 196.087C132.266 197.42 133.28 198.463 134.555 199.216C135.829 199.94 137.263 200.302 138.856 200.302ZM166.1 203.04C163.898 203.04 161.914 202.547 160.147 201.562C158.408 200.548 157.032 199.172 156.018 197.434C155.005 195.667 154.498 193.654 154.498 191.394C154.498 189.106 155.005 187.092 156.018 185.354C157.032 183.616 158.408 182.255 160.147 181.27C161.885 180.285 163.869 179.792 166.1 179.792C168.359 179.792 170.358 180.285 172.096 181.27C173.863 182.255 175.239 183.616 176.224 185.354C177.238 187.092 177.745 189.106 177.745 191.394C177.745 193.654 177.238 195.667 176.224 197.434C175.239 199.172 173.863 200.548 172.096 201.562C170.329 202.547 168.33 203.04 166.1 203.04ZM166.1 200.302C167.751 200.302 169.214 199.94 170.488 199.216C171.763 198.463 172.762 197.42 173.487 196.087C174.24 194.726 174.616 193.161 174.616 191.394C174.616 189.598 174.24 188.034 173.487 186.701C172.762 185.369 171.763 184.34 170.488 183.616C169.214 182.863 167.765 182.486 166.143 182.486C164.521 182.486 163.072 182.863 161.798 183.616C160.523 184.34 159.509 185.369 158.756 186.701C158.003 188.034 157.626 189.598 157.626 191.394C157.626 193.161 158.003 194.726 158.756 196.087C159.509 197.42 160.523 198.463 161.798 199.216C163.072 199.94 164.506 200.302 166.1 200.302ZM193.126 203.04C190.953 203.04 188.998 202.547 187.259 201.562C185.55 200.577 184.203 199.216 183.218 197.478C182.233 195.711 181.741 193.683 181.741 191.394C181.741 189.077 182.233 187.049 183.218 185.311C184.203 183.573 185.55 182.226 187.259 181.27C188.998 180.285 190.953 179.792 193.126 179.792C195.124 179.792 196.906 180.241 198.47 181.139C200.064 182.037 201.324 183.355 202.251 185.094C203.207 186.803 203.685 188.903 203.685 191.394C203.685 193.857 203.221 195.957 202.294 197.695C201.367 199.433 200.107 200.766 198.514 201.693C196.949 202.591 195.153 203.04 193.126 203.04ZM193.343 200.302C194.965 200.302 196.414 199.94 197.688 199.216C198.992 198.463 200.006 197.42 200.73 196.087C201.483 194.726 201.86 193.161 201.86 191.394C201.86 189.598 201.483 188.034 200.73 186.701C200.006 185.369 198.992 184.34 197.688 183.616C196.414 182.863 194.965 182.486 193.343 182.486C191.75 182.486 190.316 182.863 189.041 183.616C187.766 184.34 186.752 185.369 185.999 186.701C185.246 188.034 184.869 189.598 184.869 191.394C184.869 193.161 185.246 194.726 185.999 196.087C186.752 197.42 187.766 198.463 189.041 199.216C190.316 199.94 191.75 200.302 193.343 200.302ZM201.947 202.823V195.957L202.251 191.351L201.816 186.745V170.58H204.901V202.823H201.947ZM238.815 203.083C236.526 203.083 234.397 202.707 232.427 201.953C230.486 201.171 228.792 200.085 227.343 198.694C225.924 197.275 224.808 195.638 223.997 193.784C223.215 191.901 222.824 189.844 222.824 187.614C222.824 185.383 223.215 183.341 223.997 181.487C224.808 179.604 225.924 177.967 227.343 176.577C228.792 175.157 230.486 174.071 232.427 173.318C234.368 172.536 236.497 172.144 238.815 172.144C241.103 172.144 243.218 172.536 245.159 173.318C247.1 174.071 248.78 175.143 250.2 176.533C251.648 177.924 252.763 179.561 253.545 181.443C254.357 183.326 254.762 185.383 254.762 187.614C254.762 189.844 254.357 191.901 253.545 193.784C252.763 195.667 251.648 197.304 250.2 198.694C248.78 200.085 247.1 201.171 245.159 201.953C243.218 202.707 241.103 203.083 238.815 203.083ZM238.815 200.215C240.64 200.215 242.32 199.911 243.855 199.303C245.42 198.666 246.767 197.782 247.896 196.652C249.055 195.493 249.953 194.161 250.591 192.654C251.228 191.119 251.547 189.439 251.547 187.614C251.547 185.789 251.228 184.123 250.591 182.617C249.953 181.081 249.055 179.749 247.896 178.619C246.767 177.46 245.42 176.577 243.855 175.968C242.32 175.331 240.64 175.012 238.815 175.012C236.99 175.012 235.295 175.331 233.731 175.968C232.166 176.577 230.805 177.46 229.646 178.619C228.516 179.749 227.618 181.081 226.952 182.617C226.315 184.123 225.996 185.789 225.996 187.614C225.996 189.41 226.315 191.076 226.952 192.611C227.618 194.146 228.516 195.493 229.646 196.652C230.805 197.782 232.166 198.666 233.731 199.303C235.295 199.911 236.99 200.215 238.815 200.215ZM261.318 202.823V180.01H264.273V186.223L263.968 185.137C264.606 183.399 265.678 182.081 267.184 181.183C268.69 180.256 270.559 179.792 272.79 179.792V182.791C272.674 182.791 272.558 182.791 272.442 182.791C272.326 182.762 272.21 182.747 272.094 182.747C269.69 182.747 267.807 183.486 266.445 184.963C265.084 186.412 264.403 188.483 264.403 191.177V202.823H261.318ZM287.289 203.04C285.116 203.04 283.161 202.547 281.422 201.562C279.713 200.577 278.366 199.216 277.381 197.478C276.396 195.711 275.904 193.683 275.904 191.394C275.904 189.077 276.396 187.049 277.381 185.311C278.366 183.573 279.713 182.226 281.422 181.27C283.161 180.285 285.116 179.792 287.289 179.792C289.288 179.792 291.069 180.241 292.633 181.139C294.227 182.037 295.487 183.355 296.414 185.094C297.37 186.803 297.848 188.903 297.848 191.394C297.848 193.857 297.384 195.957 296.457 197.695C295.53 199.433 294.27 200.766 292.677 201.693C291.113 202.591 289.317 203.04 287.289 203.04ZM287.506 200.302C289.128 200.302 290.577 199.94 291.851 199.216C293.155 198.463 294.169 197.42 294.893 196.087C295.646 194.726 296.023 193.161 296.023 191.394C296.023 189.598 295.646 188.034 294.893 186.701C294.169 185.369 293.155 184.34 291.851 183.616C290.577 182.863 289.128 182.486 287.506 182.486C285.913 182.486 284.479 182.863 283.204 183.616C281.929 184.34 280.916 185.369 280.162 186.701C279.409 188.034 279.033 189.598 279.033 191.394C279.033 193.161 279.409 194.726 280.162 196.087C280.916 197.42 281.929 198.463 283.204 199.216C284.479 199.94 285.913 200.302 287.506 200.302ZM296.11 202.823V195.957L296.414 191.351L295.979 186.745V170.58H299.065V202.823H296.11ZM317.347 203.04C314.971 203.04 312.886 202.547 311.09 201.562C309.294 200.548 307.889 199.172 306.875 197.434C305.861 195.667 305.354 193.654 305.354 191.394C305.354 189.135 305.832 187.136 306.788 185.398C307.773 183.66 309.105 182.298 310.785 181.313C312.495 180.299 314.407 179.792 316.521 179.792C318.665 179.792 320.562 180.285 322.214 181.27C323.894 182.226 325.212 183.587 326.168 185.354C327.124 187.092 327.602 189.106 327.602 191.394C327.602 191.539 327.587 191.698 327.558 191.872C327.558 192.017 327.558 192.176 327.558 192.35H307.7V190.047H325.907L324.69 190.96C324.69 189.309 324.328 187.846 323.604 186.571C322.909 185.267 321.953 184.253 320.736 183.529C319.52 182.805 318.115 182.443 316.521 182.443C314.957 182.443 313.552 182.805 312.306 183.529C311.061 184.253 310.09 185.267 309.395 186.571C308.7 187.875 308.352 189.366 308.352 191.047V191.525C308.352 193.263 308.729 194.798 309.482 196.131C310.264 197.434 311.336 198.463 312.697 199.216C314.088 199.94 315.667 200.302 317.434 200.302C318.824 200.302 320.113 200.056 321.301 199.564C322.518 199.071 323.561 198.318 324.43 197.304L326.168 199.303C325.154 200.52 323.879 201.447 322.344 202.084C320.838 202.721 319.172 203.04 317.347 203.04ZM333.882 202.823V180.01H336.836V186.223L336.532 185.137C337.17 183.399 338.241 182.081 339.748 181.183C341.254 180.256 343.123 179.792 345.353 179.792V182.791C345.237 182.791 345.121 182.791 345.006 182.791C344.89 182.762 344.774 182.747 344.658 182.747C342.254 182.747 340.371 183.486 339.009 184.963C337.648 186.412 336.967 188.483 336.967 191.177V202.823H333.882Z" fill="#6D8B74"/>
<path d="M34.2893 44.4093L34.4829 18.7073L56.4511 31.3906L34.2893 44.4093Z" fill="#6D8B74"/>
<path d="M51.3948 44.6675L51.5884 18.9655L73.5566 31.6489L51.3948 44.6675Z" fill="#6D8B74"/>
<path d="M67.9143 44.6674L68.1079 18.9654L90.0761 31.6487L67.9143 44.6674Z" fill="#6D8B74"/>
<path d="M34.4863 77.2001H88.8248L34.4863 103.076V77.2001Z" fill="#6D8B74"/>
<rect y="19.6735" width="26.5281" height="129.104" fill="#6D8B74"/>
</svg>
